<svg width="601" height="578" viewBox="0 0 601 578" fill="none" xmlns="http://www.w3.org/2000/svg">
<circle cx="289" cy="289" r="289" fill="white"/>
<g clip-path="url(#clip0_1207_154)">
<path d="M342.379 508.184C338.223 502.371 332.597 498.118 325.525 496.526C319.358 495.138 313.016 495.375 306.747 495.423L227.477 496.034C220.688 496.086 214.179 501.961 214.494 509.002C214.807 515.983 220.2 522.025 227.477 521.969C250.698 521.79 273.918 521.612 297.139 521.433C302.613 521.391 308.09 521.292 313.565 521.31C314.795 521.314 316.019 521.379 317.247 521.393C317.545 521.396 317.759 521.393 317.911 521.387C317.949 521.398 317.981 521.409 318.031 521.423C318.671 521.598 319.329 521.719 319.973 521.886C319.747 521.893 320.391 522.294 320.715 522.43C320.759 522.518 320.854 522.673 321.012 522.913C321.232 523.326 321.886 524.581 321.913 524.541C322.894 527.021 323.704 529.564 324.336 532.154C325.845 537.866 326.177 539.06 326.394 544.418C326.668 551.188 332.169 557.709 339.376 557.386C346.175 557.082 352.654 551.678 352.359 544.418C351.863 532.185 349.713 518.443 342.379 508.184Z" fill="#E6E6E6"/>
<path d="M232.137 537.446C230.648 528.434 229.187 519.416 227.67 510.409C226.129 501.272 222.984 492.904 215.865 486.907C213.963 485.305 211.991 483.809 210.01 482.318C209.313 481.793 208.618 481.268 207.93 480.733C207.889 480.7 207.863 480.68 207.827 480.653C207.751 480.588 207.66 480.51 207.538 480.407C204.571 477.899 201.704 475.279 198.973 472.494C196.548 470.021 194.229 467.442 192.016 464.758C191.463 464.088 190.917 463.412 190.378 462.729C190.285 462.612 189.786 461.967 189.457 461.547C189.151 461.126 188.592 460.366 188.498 460.233C187.869 459.344 187.25 458.447 186.643 457.541C182.508 451.353 178.927 444.812 175.943 437.996C175.647 437.32 175.358 436.64 175.076 435.956C175 435.747 174.902 435.479 174.773 435.122C174.171 433.47 173.571 431.82 173.021 430.148C171.853 426.598 170.848 422.995 170.007 419.339C169.592 417.535 169.218 415.72 168.885 413.897C168.713 412.96 168.553 412.02 168.404 411.078C168.379 410.922 168.233 409.906 168.147 409.332C168.084 408.756 167.966 407.734 167.95 407.577C167.855 406.628 167.771 405.678 167.697 404.727C167.531 402.587 167.419 400.444 167.36 398.297C167.26 394.481 167.329 390.666 167.565 386.851C167.7 384.708 167.892 382.57 168.128 380.436C168.142 380.305 168.153 380.201 168.164 380.107C168.178 380.012 168.194 379.903 168.214 379.769C168.389 378.589 168.573 377.412 168.778 376.238C169.557 371.78 170.57 367.367 171.813 363.016C172.401 360.958 173.04 358.917 173.73 356.893C174.037 355.994 174.354 355.099 174.681 354.207C174.66 354.264 175.641 351.763 175.654 351.679C179.544 342.497 185.908 334.126 185.917 323.695C185.923 316.633 179.941 309.869 172.934 310.195C169.441 310.326 166.134 311.807 163.713 314.326C161.291 316.844 159.942 320.203 159.951 323.695C159.951 323.854 159.951 323.989 159.95 324.121C159.885 324.341 159.83 324.524 159.781 324.686C159.022 326.333 158.093 327.898 157.26 329.504C154.98 333.9 153.033 338.439 151.184 343.046C148.157 350.547 145.84 358.315 144.263 366.249C140.836 383.63 140.57 401.487 143.478 418.963C148.512 449.609 165.112 478.946 188.19 498.665C190.192 500.376 192.244 502.03 194.315 503.65C195.172 504.32 196.036 504.978 196.904 505.632C197.315 505.941 199.015 507.281 198.267 506.632C199.876 508.003 200.553 508.693 200.966 509.703C201.026 509.936 201.108 510.252 201.218 510.684C201.509 511.823 201.786 512.96 202.016 514.115C204.025 524.207 205.421 534.467 207.099 544.624C208.252 551.603 216.854 556.145 223.069 554.054C230.304 551.619 233.372 544.924 232.137 537.446Z" fill="#E6E6E6"/>
<path d="M343.692 563.621C338.24 563.635 333.004 561.489 329.134 557.652C325.264 553.816 323.076 548.602 323.049 543.156V528.364C307.544 530.098 254.449 529.696 239.23 527.253V542.565C239.189 548.006 236.996 553.211 233.129 557.045C229.262 560.878 224.035 563.03 218.587 563.03C213.139 563.03 207.912 560.878 204.045 557.045C200.178 553.211 197.985 548.006 197.944 542.565V512.503C177.331 501.064 160.146 484.339 148.165 464.052C136.183 443.766 129.838 420.653 129.785 397.099C129.785 356.713 148.109 319.038 180.06 293.736C200.833 277.228 226.073 267.301 252.538 265.228C256.13 264.947 259.744 264.804 263.28 264.804C275.737 264.804 331.941 266.727 346.043 270.779L378.198 238.909C378.671 238.434 379.275 238.111 379.932 237.98C380.59 237.849 381.271 237.917 381.89 238.174C382.514 238.422 383.048 238.853 383.422 239.409C383.796 239.965 383.993 240.622 383.987 241.292V246.359L390.248 240.165C390.72 239.69 391.323 239.366 391.98 239.235C392.638 239.104 393.319 239.172 393.937 239.429C394.562 239.677 395.096 240.107 395.471 240.664C395.845 241.221 396.043 241.877 396.037 242.548V299.172C412.172 313.701 424.469 331.982 431.84 352.393C439.21 372.804 441.426 394.717 438.291 416.188C435.155 437.659 426.766 458.027 413.865 475.485C400.965 492.943 383.952 506.953 364.334 516.273V543.156C364.308 548.603 362.119 553.816 358.25 557.652C354.38 561.489 349.144 563.635 343.692 563.621ZM324.672 526.526V543.156C324.713 548.168 326.735 552.961 330.298 556.49C333.86 560.019 338.674 562 343.692 562C348.71 562 353.524 560.019 357.086 556.49C360.649 552.961 362.671 548.168 362.712 543.156V515.249L363.175 515.03C385.187 504.597 403.873 488.274 417.159 467.875C434.09 441.843 441.13 410.618 437.008 379.85C432.885 349.082 417.871 320.806 394.684 300.137L394.414 299.895V242.548C394.42 242.2 394.319 241.858 394.124 241.569C393.929 241.28 393.651 241.057 393.325 240.931C393.002 240.793 392.645 240.755 392.3 240.824C391.955 240.892 391.639 241.063 391.393 241.314L382.364 250.246V241.292C382.37 240.944 382.269 240.602 382.074 240.313C381.88 240.023 381.601 239.801 381.276 239.675C380.952 239.537 380.593 239.5 380.248 239.569C379.903 239.638 379.586 239.809 379.34 240.061L346.497 272.613L346.03 272.467C332.921 268.368 275.832 266.425 263.28 266.425C259.786 266.425 256.215 266.566 252.665 266.844C226.522 268.892 201.589 278.699 181.068 295.006C149.508 319.999 131.408 357.211 131.408 397.099C131.462 420.445 137.773 443.349 149.685 463.435C161.597 483.52 178.677 500.053 199.149 511.317L199.567 511.548V542.565C199.609 547.576 201.631 552.368 205.194 555.896C208.756 559.425 213.57 561.405 218.587 561.405C223.604 561.405 228.418 559.425 231.98 555.896C235.543 552.368 237.565 547.576 237.607 542.565V525.313L238.568 525.494C252.245 528.064 309.837 528.469 323.755 526.646L324.672 526.526Z" fill="#3F3D56"/>
<path d="M233.688 176.543L143.831 203.515C140.973 204.377 138.574 206.336 137.161 208.963C135.748 211.59 135.438 214.669 136.297 217.525C137.156 220.381 139.115 222.779 141.743 224.193C144.371 225.607 147.454 225.921 150.314 225.066L228.949 201.457L230.596 200.962C230.929 192.484 233.232 184.198 237.323 176.761C236.809 176.531 236.261 176.388 235.7 176.34C235.022 176.274 234.338 176.343 233.688 176.543Z" fill="#3578E5"/>
<path d="M148.76 230.817C147.567 230.814 146.406 230.437 145.439 229.738C144.473 229.04 143.75 228.056 143.374 226.926L137.755 209.99C137.521 209.282 137.428 208.536 137.482 207.793C137.536 207.05 137.736 206.325 138.071 205.659C138.406 204.993 138.869 204.399 139.433 203.912C139.997 203.425 140.652 203.054 141.361 202.82L214.495 178.61C215.203 178.376 215.95 178.283 216.694 178.337C217.438 178.391 218.164 178.591 218.831 178.925C219.497 179.26 220.091 179.722 220.579 180.286C221.067 180.849 221.439 181.503 221.673 182.211L227.292 199.146C227.76 200.539 227.666 202.059 227.031 203.384C226.396 204.71 225.269 205.736 223.89 206.246C223.822 206.271 223.754 206.295 223.685 206.317L150.553 230.526C149.975 230.718 149.369 230.816 148.76 230.817Z" fill="#2F2E41"/>
<path d="M285.724 146.466C270.963 146.472 256.784 152.214 246.188 162.478C235.591 172.741 229.408 186.721 228.949 201.457C228.933 202.032 228.925 202.616 228.925 203.2C228.925 214.42 232.256 225.389 238.497 234.719C244.738 244.049 253.609 251.321 263.988 255.615C274.367 259.909 285.787 261.032 296.805 258.843C307.823 256.654 317.944 251.251 325.887 243.316C333.831 235.382 339.241 225.273 341.432 214.268C343.624 203.263 342.499 191.855 338.2 181.489C333.901 171.122 326.621 162.261 317.28 156.027C307.94 149.793 296.958 146.466 285.724 146.466ZM285.724 258.312C271.095 258.297 257.069 252.486 246.725 242.153C236.381 231.821 230.563 217.812 230.547 203.2C230.547 202.446 230.564 201.7 230.596 200.963C231.035 190.167 234.642 179.738 240.968 170.974C247.294 162.209 256.059 155.495 266.174 151.666C276.29 147.837 287.309 147.063 297.861 149.44C308.413 151.816 318.033 157.238 325.525 165.032C333.017 172.826 338.05 182.647 339.998 193.275C341.947 203.903 340.724 214.869 336.483 224.809C332.242 234.748 325.169 243.223 316.145 249.18C307.12 255.137 296.541 258.313 285.724 258.312Z" fill="#3F3D56"/>
<path d="M333.598 203.2C333.598 215.882 328.554 228.045 319.576 237.012C310.598 245.98 298.421 251.018 285.724 251.018C273.027 251.018 260.85 245.98 251.872 237.012C242.894 228.045 237.85 215.882 237.85 203.2C237.85 201.684 237.923 200.193 238.061 198.718C239.215 186.478 245.043 175.152 254.337 167.092C263.631 159.032 275.676 154.857 287.97 155.434C300.265 156.011 311.864 161.295 320.361 170.19C328.857 179.084 333.598 190.906 333.598 203.2Z" fill="#E6E6E6"/>
<path d="M299.98 206.376C298.82 204.852 297.294 203.645 295.542 202.867C293.382 201.958 291.151 201.226 288.872 200.679V187.662C292.376 188.19 295.661 189.686 298.358 191.982L301.003 186.349C299.482 184.996 297.735 183.918 295.842 183.164C293.744 182.316 291.542 181.751 289.294 181.486V174.889H283.168V181.551C280.802 181.817 278.52 182.582 276.474 183.796C274.625 184.889 273.069 186.413 271.938 188.238C270.858 190.018 270.299 192.065 270.323 194.146C270.218 196.402 270.872 198.627 272.181 200.468C273.387 202.062 274.978 203.322 276.806 204.131C279.001 205.068 281.27 205.818 283.59 206.376V218.85C279.456 218.538 275.516 216.968 272.303 214.352L269.658 219.993C271.455 221.476 273.498 222.634 275.695 223.413C278.102 224.273 280.617 224.797 283.168 224.969V231.509H289.294V224.847C292.697 224.476 295.888 223.014 298.39 220.681C299.492 219.626 300.363 218.353 300.946 216.944C301.53 215.535 301.815 214.02 301.782 212.496C301.884 210.312 301.249 208.157 299.98 206.376ZM283.59 199.301C282.098 198.849 280.71 198.105 279.508 197.113C279.032 196.689 278.656 196.166 278.406 195.58C278.156 194.995 278.04 194.361 278.064 193.725C278.02 192.281 278.551 190.879 279.541 189.826C280.638 188.722 282.054 187.988 283.59 187.727V199.301ZM292.718 216.548C291.683 217.608 290.335 218.31 288.872 218.55V207.819C290.271 208.194 291.579 208.847 292.718 209.74C293.15 210.108 293.494 210.569 293.723 211.088C293.951 211.608 294.06 212.172 294.041 212.739C294.097 214.13 293.625 215.49 292.718 216.548Z" fill="#3578E5"/>
<path d="M151.368 299.456C150.114 299.454 148.895 299.038 147.901 298.274C146.907 297.51 146.193 296.439 145.871 295.228L142.811 283.663C142.428 282.209 142.638 280.663 143.395 279.364C144.152 278.064 145.394 277.118 146.848 276.732L243.359 251.259C244.816 250.879 246.363 251.091 247.664 251.849C248.964 252.606 249.911 253.847 250.298 255.299L252.889 265.098L252.404 265.136C227.652 267.058 203.969 276.022 184.157 290.967L184.016 291.035L152.809 299.269C152.339 299.393 151.854 299.456 151.368 299.456Z" fill="#2F2E41"/>
<path d="M135.384 356.583C124.063 354.913 113.235 350.824 103.639 344.595C98.8855 341.511 94.4846 337.916 90.5156 333.873C86.5981 329.882 82.8505 325.346 80.9101 320.031C79.0432 315.113 79.1395 309.667 81.1789 304.819C83.1905 300 87.0332 296.174 91.8643 294.181C96.7244 292.245 102.596 292.038 107.326 294.158C109.58 295.145 111.531 296.713 112.977 298.701C113.65 299.618 114.148 300.651 114.446 301.747C114.723 302.741 114.748 303.788 114.52 304.794C114.242 305.798 113.753 306.732 113.085 307.532C112.417 308.332 111.585 308.98 110.646 309.432C108.579 310.492 106.338 311.174 104.031 311.447C101.71 311.763 98.3766 312.051 96.5108 310.19C96.1268 309.822 95.8247 309.377 95.6243 308.885C95.484 308.508 95.4361 308.102 95.4844 307.703C95.4572 307.879 95.597 307.32 95.589 307.343C95.5595 307.425 95.4317 307.627 95.6133 307.317C95.6701 307.215 95.7333 307.117 95.8025 307.023C95.7408 307.103 95.6054 307.235 95.8473 307.007C96.0471 306.789 96.304 306.631 96.5891 306.55C96.7014 306.517 96.8154 306.491 96.928 306.461C97.2142 306.382 96.6427 306.465 96.9355 306.455C97.0485 306.452 97.1629 306.455 97.2755 306.45C97.5628 306.437 96.9921 306.371 97.2674 306.44C97.3743 306.467 97.4802 306.493 97.5855 306.527C97.8144 306.599 97.4234 306.359 97.5785 306.538C97.7603 306.749 97.3877 306.334 97.5943 306.537C97.6971 306.638 97.794 306.745 97.8845 306.857C98.2427 307.21 98.7259 307.408 99.2294 307.408C99.7329 307.408 100.216 307.21 100.574 306.857C100.92 306.495 101.114 306.014 101.114 305.514C101.114 305.013 100.92 304.532 100.574 304.17C98.6988 301.848 94.9941 302.422 93.0969 304.384C90.6772 306.888 91.6354 310.855 93.989 313.039C96.6535 315.511 100.427 315.683 103.855 315.269C106.751 314.991 109.574 314.195 112.187 312.917C114.784 311.642 116.815 309.451 117.887 306.766C118.371 305.334 118.544 303.815 118.397 302.31C118.249 300.806 117.783 299.35 117.029 298.038C114.003 292.356 107.737 289.443 101.544 288.938C98.3553 288.689 95.1487 289.073 92.1098 290.07C89.0709 291.066 86.26 292.655 83.8398 294.743C79.1749 298.938 76.3024 304.763 75.8162 311.014C75.2756 317.494 77.7929 323.788 81.4631 329.018C85.3053 334.332 89.8904 339.068 95.0783 343.083C105.221 351.171 117.117 356.775 129.817 359.447C131.327 359.759 132.846 360.025 134.373 360.247C134.859 360.365 135.371 360.293 135.806 360.047C136.24 359.8 136.565 359.397 136.712 358.92C136.843 358.435 136.777 357.917 136.528 357.48C136.279 357.043 135.868 356.721 135.384 356.583Z" fill="#3F3D56"/>
<path d="M316.644 274.015C300.056 273.781 283.522 274.201 267.039 275.276C261.405 275.644 256.531 277.633 256.531 280.976C256.531 283.771 261.366 287.045 267.039 286.675C283.513 285.6 300.048 285.18 316.644 285.413C330.173 285.604 330.165 274.205 316.644 274.015Z" fill="#CCCCCC"/>
<path d="M292.127 284.849C290.335 284.849 248.225 284.782 248.225 278.972C248.225 273.163 290.335 273.096 292.127 273.096C293.92 273.096 336.03 273.163 336.03 278.972C336.03 284.782 293.92 284.849 292.127 284.849ZM249.871 278.972C251.024 280.734 266.503 283.228 292.127 283.228C317.752 283.228 333.231 280.734 334.383 278.972C333.231 277.211 317.752 274.717 292.127 274.717C266.503 274.717 251.024 277.211 249.871 278.972Z" fill="#3F3D56"/>
<path d="M425.731 437.585C435.053 437.326 446.655 437.003 455.592 430.482C458.254 428.46 460.44 425.882 461.999 422.927C463.558 419.973 464.451 416.713 464.616 413.378C464.798 408.227 462.935 403.732 459.37 400.723C454.702 396.783 447.885 395.859 440.539 398.015L448.15 342.458L442.563 341.693L433.615 407.008L438.281 404.869C443.69 402.391 451.116 401.13 455.73 405.025C456.863 406.043 457.745 407.308 458.309 408.723C458.873 410.137 459.103 411.662 458.98 413.18C458.843 415.662 458.173 418.086 457.014 420.287C455.855 422.487 454.236 424.413 452.266 425.932C445.31 431.007 436.063 431.662 425.574 431.955L425.731 437.585Z" fill="#3F3D56"/>
<path d="M410.283 347.249H379.91V352.882H410.283V347.249Z" fill="#3F3D56"/>
<path d="M165.112 325.363C163.76 325.359 162.454 324.874 161.428 323.995C160.401 323.116 159.721 321.901 159.51 320.567L157.656 308.749C157.425 307.263 157.793 305.745 158.68 304.53C159.567 303.315 160.901 302.5 162.389 302.266L261.002 286.832C262.49 286.601 264.009 286.969 265.226 287.855C266.443 288.741 267.258 290.073 267.492 291.559L269.346 303.377C269.578 304.864 269.21 306.381 268.323 307.597C267.435 308.812 266.102 309.626 264.614 309.861L166.001 325.294C165.707 325.34 165.41 325.363 165.112 325.363Z" fill="#2F2E41"/>
<path d="M124.301 186.866C147.156 186.866 165.684 168.36 165.684 145.531C165.684 122.703 147.156 104.197 124.301 104.197C101.446 104.197 82.9187 122.703 82.9187 145.531C82.9187 168.36 101.446 186.866 124.301 186.866Z" fill="#3578E5"/>
<path d="M147.731 156.226C149.054 155.764 150.262 155.025 151.275 154.057C151.945 153.368 152.456 152.54 152.772 151.632C153.088 150.725 153.201 149.759 153.104 148.803C153.048 148.122 152.835 147.462 152.481 146.877C152.127 146.291 151.643 145.796 151.066 145.428C149.568 144.508 147.589 144.543 145.591 145.468L145.361 129.333L143.738 129.356L144.009 148.324L145.244 147.515C146.677 146.578 148.735 145.899 150.216 146.809C150.582 147.05 150.888 147.372 151.109 147.75C151.33 148.128 151.461 148.552 151.492 148.989C151.56 149.701 151.474 150.42 151.239 151.096C151.005 151.772 150.627 152.389 150.132 152.906C148.373 154.65 145.769 155.234 142.797 155.768L143.085 157.363C144.664 157.124 146.22 156.743 147.731 156.226Z" fill="#2F2E41"/>
<path d="M162.071 128.201L153.429 129.508L153.672 131.11L162.314 129.803L162.071 128.201Z" fill="#2F2E41"/>
<path d="M134.793 132.326L126.152 133.633L126.395 135.236L135.036 133.929L134.793 132.326Z" fill="#2F2E41"/>
<path d="M151.649 324.641C150.16 324.638 148.708 324.182 147.486 323.334C146.263 322.487 145.328 321.287 144.805 319.895L116.273 243.573C112.785 234.213 113.158 223.853 117.308 214.766C121.459 205.68 129.048 198.609 138.412 195.105L161.611 186.452C162.509 186.115 163.464 185.958 164.421 185.992C165.379 186.025 166.321 186.247 167.192 186.645C168.062 187.033 168.845 187.59 169.497 188.284C170.148 188.978 170.654 189.795 170.986 190.686L223.839 290.362C224.183 291.261 224.344 292.219 224.315 293.18C224.287 294.142 224.068 295.088 223.671 295.965C223.275 296.842 222.709 297.631 222.006 298.289C221.302 298.946 220.476 299.458 219.574 299.795L154.201 324.177C153.385 324.483 152.52 324.64 151.649 324.641Z" fill="#2F2E41"/>
<path d="M154.573 189.077L207.014 259.123L171.529 189.812C171.236 189.003 170.787 188.26 170.206 187.625C169.625 186.99 168.925 186.475 168.145 186.111C167.365 185.746 166.521 185.538 165.661 185.499C164.801 185.461 163.942 185.591 163.132 185.884L154.573 189.077Z" fill="#E6E6E6"/>
<path d="M237.607 242.273L143.973 236.248C142.497 236.153 141.054 235.769 139.727 235.117C138.4 234.465 137.214 233.559 136.238 232.449C135.261 231.339 134.513 230.049 134.036 228.65C133.559 227.252 133.363 225.774 133.458 224.299C133.553 222.825 133.938 221.384 134.59 220.059C135.243 218.733 136.151 217.549 137.261 216.573C138.372 215.598 139.665 214.851 141.065 214.375C142.464 213.898 143.945 213.702 145.421 213.797L239.055 219.821C239.746 219.865 240.422 220.045 241.043 220.35C241.665 220.656 242.22 221.08 242.677 221.6C243.135 222.119 243.485 222.724 243.708 223.379C243.932 224.034 244.024 224.726 243.979 225.416L243.209 237.354C243.119 238.748 242.479 240.05 241.428 240.972C240.377 241.895 239.003 242.362 237.607 242.273Z" fill="#3578E5"/>
<path d="M212.587 246.135C212.463 246.135 212.339 246.131 212.215 246.123L135.327 241.176C134.583 241.129 133.855 240.935 133.186 240.606C132.517 240.277 131.919 239.82 131.426 239.261C130.934 238.701 130.556 238.05 130.316 237.345C130.075 236.639 129.976 235.894 130.024 235.15L131.339 214.76C131.387 214.017 131.581 213.29 131.91 212.621C132.239 211.953 132.697 211.355 133.258 210.864C133.818 210.372 134.47 209.995 135.176 209.755C135.882 209.514 136.628 209.415 137.373 209.463L214.26 214.41C215.762 214.508 217.165 215.198 218.159 216.328C219.153 217.457 219.658 218.935 219.563 220.436L218.248 240.826C218.176 241.919 217.789 242.968 217.135 243.846C216.48 244.725 215.586 245.396 214.559 245.779C213.928 246.015 213.26 246.135 212.587 246.135Z" fill="#2F2E41"/>
<path d="M123.827 118.044C129.271 113.368 136.747 117.551 142.99 116.819C148.963 116.118 153.679 110.767 154.884 105.081C156.29 98.4483 152.843 91.803 147.763 87.6674C142.198 83.138 134.819 81.8377 127.826 82.6757C119.811 83.6361 112.481 87.3678 105.903 91.8816C99.5548 96.1035 93.7165 101.045 88.5052 106.607C83.8386 111.755 79.8848 117.891 78.6223 124.819C77.4749 131.114 78.351 138.09 82.0769 143.423C84.0526 146.157 86.7003 148.336 89.7645 149.749C92.9594 151.317 96.3674 152.437 99.4627 154.209C104.143 156.887 108.691 162.442 107.225 168.223C106.911 169.485 106.291 170.651 105.419 171.618C104.372 172.78 102.483 171.245 103.533 170.081C105.377 168.036 105.304 165.309 104.322 162.867C103.153 160.116 101.083 157.843 98.4523 156.421C95.2122 154.57 91.6351 153.428 88.3144 151.743C85.1358 150.203 82.3768 147.919 80.272 145.086C76.2975 139.569 75.1086 132.389 76.01 125.747C76.9855 118.559 80.6827 112.028 85.3175 106.554C90.3615 100.598 96.5573 95.5555 102.887 91.0259C109.678 86.1655 117.182 82.0564 125.485 80.5702C132.682 79.2819 140.484 80.0751 146.778 83.9929C152.653 87.6498 157.158 93.9405 157.606 100.97C157.767 104.168 157.071 107.351 155.592 110.192C154.112 113.033 151.901 115.429 149.186 117.132C146.401 118.797 143.162 119.547 139.928 119.275C136.47 119.054 133.009 117.996 129.529 118.29C127.954 118.385 126.453 118.991 125.254 120.015C124.065 121.037 122.647 119.058 123.827 118.044Z" fill="#2F2E41"/>
<path d="M600.034 564H0.966038C0.710285 563.999 0.465266 563.897 0.284682 563.716C0.104099 563.535 0.00268555 563.29 0.00268555 563.035C0.00268555 562.779 0.104099 562.534 0.284682 562.353C0.465266 562.173 0.710285 562.071 0.966038 562.07H600.034C600.29 562.07 600.536 562.172 600.717 562.352C600.898 562.533 601 562.779 601 563.035C601 563.291 600.898 563.536 600.717 563.717C600.536 563.898 600.29 564 600.034 564Z" fill="#3F3D56"/>
</g>
<defs>
<clipPath id="clip0_1207_154">
<rect width="601" height="484" fill="white" transform="translate(0 80)"/>
</clipPath>
</defs>
</svg>
