<svg width="578" height="578" viewBox="0 0 578 578" fill="none" xmlns="http://www.w3.org/2000/svg">
<circle cx="289" cy="289" r="289" fill="white"/>
<g clip-path="url(#clip0_1207_153)">
<mask id="mask0_1207_153" style="mask-type:luminance" maskUnits="userSpaceOnUse" x="155" y="133" width="268" height="368">
<path d="M387.771 215.625C387.515 214.118 386.849 212.711 385.847 211.557C384.845 210.403 383.544 209.547 382.088 209.082C380.632 208.618 379.077 208.563 377.591 208.923C376.106 209.283 374.748 210.045 373.667 211.125L330.417 254.5L296.375 189.688C295.668 188.344 294.608 187.219 293.308 186.434C292.008 185.649 290.518 185.234 289 185.234C287.482 185.234 285.992 185.649 284.692 186.434C283.393 187.219 282.332 188.344 281.625 189.688L263.021 225.104L216.354 138.083C215.529 136.542 214.24 135.299 212.669 134.531C211.098 133.762 209.325 133.508 207.602 133.803C205.878 134.097 204.291 134.927 203.065 136.174C201.839 137.421 201.037 139.022 200.771 140.75L155.667 429.5L276.292 497.125C280.017 499.205 284.213 500.297 288.479 500.297C292.746 500.297 296.941 499.205 300.667 497.125L422.333 429.5L387.771 215.625Z" fill="white"/>
</mask>
<g mask="url(#mask0_1207_153)">
<path d="M155.667 429.5L200.792 140.729C201.061 139.002 201.866 137.404 203.093 136.159C204.32 134.915 205.908 134.088 207.631 133.796C209.354 133.503 211.125 133.76 212.694 134.529C214.264 135.299 215.551 136.542 216.375 138.083L263.042 225.125L281.646 189.708C282.353 188.364 283.413 187.239 284.713 186.454C286.013 185.67 287.503 185.255 289.021 185.255C290.539 185.255 292.029 185.67 293.329 186.454C294.628 187.239 295.689 188.364 296.396 189.708L422.333 429.5H155.667Z" fill="#FFA000"/>
<path opacity="0.12" d="M309.833 135.75L89 117V517L155.667 429.5L309.833 135.75Z" fill="url(#paint0_linear_1207_153)"/>
<path d="M311.563 317.021L263.021 225.104L155.667 429.5L311.563 317.021Z" fill="#F57C00"/>
<path opacity="0.2" d="M89 117H489V517H89V117Z" fill="url(#paint1_linear_1207_153)"/>
<path d="M422.333 429.5L387.771 215.625C387.515 214.118 386.849 212.711 385.847 211.557C384.845 210.403 383.544 209.547 382.088 209.082C380.632 208.618 379.077 208.563 377.591 208.923C376.106 209.283 374.748 210.045 373.667 211.125L155.667 429.5L276.292 497.146C280.017 499.226 284.213 500.318 288.479 500.318C292.746 500.318 296.941 499.226 300.667 497.146L422.333 429.5Z" fill="#FFCA28"/>
<path d="M387.771 215.625C387.515 214.118 386.849 212.711 385.847 211.557C384.845 210.403 383.544 209.547 382.088 209.082C380.632 208.618 379.076 208.563 377.591 208.923C376.106 209.283 374.748 210.045 373.667 211.125L330.417 254.5L296.375 189.688C295.668 188.344 294.607 187.219 293.308 186.434C292.008 185.649 290.518 185.234 289 185.234C287.482 185.234 285.992 185.649 284.692 186.434C283.393 187.219 282.332 188.344 281.625 189.688L263.021 225.104L216.354 138.083C215.529 136.542 214.24 135.299 212.669 134.531C211.098 133.762 209.325 133.508 207.602 133.803C205.878 134.097 204.291 134.927 203.065 136.174C201.839 137.421 201.037 139.022 200.771 140.75L155.667 429.5H155.5L155.646 429.667L156.833 430.25L330.313 256.583L373.604 213.25C374.685 212.164 376.044 211.397 377.532 211.033C379.021 210.67 380.58 210.723 382.04 211.189C383.5 211.654 384.803 212.512 385.807 213.67C386.811 214.827 387.476 216.239 387.729 217.75L422 429.708L422.333 429.5L387.771 215.625ZM156.062 429.104L200.792 142.813C201.057 141.084 201.86 139.483 203.086 138.236C204.312 136.99 205.899 136.16 207.623 135.865C209.346 135.57 211.119 135.825 212.69 136.593C214.26 137.361 215.55 138.604 216.375 140.146L263.042 227.188L281.646 191.771C282.353 190.427 283.413 189.302 284.713 188.517C286.013 187.732 287.502 187.317 289.021 187.317C290.539 187.317 292.029 187.732 293.329 188.517C294.628 189.302 295.689 190.427 296.396 191.771L329.729 255.167L156.062 429.104Z" fill="white" fill-opacity="0.2"/>
<path opacity="0.2" d="M300.667 495.104C296.941 497.184 292.746 498.276 288.479 498.276C284.213 498.276 280.017 497.184 276.292 495.104L155.958 427.604L155.667 429.5L276.292 497.125C280.017 499.205 284.213 500.297 288.479 500.297C292.746 500.297 296.941 499.205 300.667 497.125L422.333 429.5L422.021 427.583L300.667 495.104Z" fill="#A52714"/>
<path d="M387.771 215.625C387.515 214.118 386.849 212.711 385.847 211.557C384.845 210.403 383.544 209.547 382.088 209.082C380.632 208.618 379.077 208.563 377.591 208.923C376.106 209.283 374.748 210.045 373.667 211.125L330.417 254.5L296.375 189.688C295.668 188.344 294.608 187.219 293.308 186.434C292.008 185.649 290.518 185.234 289 185.234C287.482 185.234 285.992 185.649 284.692 186.434C283.393 187.219 282.332 188.344 281.625 189.688L263.021 225.104L216.354 138.083C215.529 136.542 214.24 135.299 212.669 134.531C211.098 133.762 209.325 133.508 207.602 133.803C205.878 134.097 204.291 134.927 203.065 136.174C201.839 137.421 201.037 139.022 200.771 140.75L155.667 429.5L276.292 497.125C280.017 499.205 284.213 500.297 288.479 500.297C292.746 500.297 296.941 499.205 300.667 497.125L422.333 429.5L387.771 215.625Z" fill="url(#paint2_linear_1207_153)"/>
</g>
<path d="M389 500.333C435.024 500.333 472.333 463.024 472.333 417C472.333 370.976 435.024 333.667 389 333.667C342.976 333.667 305.667 370.976 305.667 417C305.667 463.024 342.976 500.333 389 500.333Z" fill="white"/>
<path fill-rule="evenodd" clip-rule="evenodd" d="M351.5 429.5H426.5V446.175C426.501 447.268 426.287 448.35 425.87 449.359C425.453 450.369 424.84 451.287 424.069 452.06C423.297 452.833 422.38 453.446 421.371 453.865C420.362 454.284 419.28 454.499 418.187 454.5H359.813C357.607 454.496 355.493 453.617 353.935 452.057C352.376 450.496 351.501 448.381 351.5 446.175V429.5ZM351.5 387.8C351.5 383.217 355.221 379.5 359.813 379.5H418.187C422.779 379.5 426.5 383.25 426.5 387.8V417.033C426.5 421.617 422.779 425.333 418.187 425.333H359.813C355.221 425.333 351.5 421.583 351.5 417.033V387.8ZM359.833 387.833H418.167V400.333H359.833V387.833ZM359.833 410.771C359.833 409.604 360.725 408.667 361.937 408.667H366.063C367.229 408.667 368.167 409.558 368.167 410.771V414.896C368.171 415.173 368.12 415.449 368.016 415.706C367.912 415.964 367.757 416.197 367.56 416.394C367.364 416.59 367.13 416.745 366.873 416.849C366.616 416.953 366.34 417.005 366.063 417H361.937C361.66 417.005 361.384 416.953 361.127 416.849C360.87 416.745 360.636 416.59 360.44 416.394C360.243 416.197 360.088 415.964 359.984 415.706C359.88 415.449 359.829 415.173 359.833 414.896V410.771ZM359.833 439.937C359.833 438.771 360.725 437.833 361.937 437.833H366.063C367.229 437.833 368.167 438.725 368.167 439.937V444.063C368.171 444.34 368.12 444.616 368.016 444.873C367.912 445.13 367.757 445.364 367.56 445.56C367.364 445.757 367.13 445.912 366.873 446.016C366.616 446.12 366.34 446.171 366.063 446.167H361.937C361.66 446.171 361.384 446.12 361.127 446.016C360.87 445.912 360.636 445.757 360.44 445.56C360.243 445.364 360.088 445.13 359.984 444.873C359.88 444.616 359.829 444.34 359.833 444.063V439.937Z" fill="black" fill-opacity="0.54"/>
</g>
<defs>
<linearGradient id="paint0_linear_1207_153" x1="207.542" y1="330.625" x2="190.875" y2="321.917" gradientUnits="userSpaceOnUse">
<stop stop-color="#A52714"/>
<stop offset="0.4" stop-color="#A52714" stop-opacity="0.5"/>
<stop offset="0.8" stop-color="#A52714" stop-opacity="0"/>
</linearGradient>
<linearGradient id="paint1_linear_1207_153" x1="278.354" y1="306.396" x2="270.896" y2="298.937" gradientUnits="userSpaceOnUse">
<stop stop-color="#A52714" stop-opacity="0.8"/>
<stop offset="0.5" stop-color="#A52714" stop-opacity="0.21"/>
<stop offset="1" stop-color="#A52714" stop-opacity="0"/>
</linearGradient>
<linearGradient id="paint2_linear_1207_153" x1="145.642" y1="200.919" x2="424.156" y2="479.433" gradientUnits="userSpaceOnUse">
<stop stop-color="white" stop-opacity="0.1"/>
<stop offset="1" stop-color="white" stop-opacity="0"/>
</linearGradient>
<clipPath id="clip0_1207_153">
<rect width="400" height="400" fill="white" transform="translate(89 117)"/>
</clipPath>
</defs>
</svg>
