<svg width="48" height="49" viewBox="0 0 48 49" fill="none" xmlns="http://www.w3.org/2000/svg">
<path d="M16.0548 37.8937C16.0548 38.0812 15.8323 38.2312 15.5516 38.2312C15.2323 38.2593 15.0097 38.1093 15.0097 37.8937C15.0097 37.7062 15.2323 37.5562 15.5129 37.5562C15.8032 37.5281 16.0548 37.6781 16.0548 37.8937ZM13.0452 37.4718C12.9774 37.6593 13.171 37.875 13.4613 37.9312C13.7129 38.025 14.0032 37.9312 14.0613 37.7437C14.1194 37.5562 13.9355 37.3406 13.6452 37.2562C13.3935 37.1906 13.1129 37.2843 13.0452 37.4718ZM17.3226 37.3125C17.0419 37.3781 16.8484 37.5562 16.8774 37.7718C16.9065 37.9593 17.1581 38.0812 17.4484 38.0156C17.729 37.95 17.9226 37.7718 17.8935 37.5843C17.8645 37.4062 17.6032 37.2843 17.3226 37.3125ZM23.6903 1.38745C10.2677 1.38745 0 11.2593 0 24.2625C0 34.6593 6.75484 43.5562 16.4032 46.6875C17.6419 46.9031 18.0774 46.1625 18.0774 45.5531C18.0774 44.9718 18.0484 41.7656 18.0484 39.7968C18.0484 39.7968 11.2742 41.2031 9.85161 37.0031C9.85161 37.0031 8.74839 34.275 7.16129 33.5718C7.16129 33.5718 4.94516 32.1 7.31613 32.1281C7.31613 32.1281 9.72581 32.3156 11.0516 34.5468C13.171 38.1656 16.7226 37.125 18.1065 36.5062C18.329 35.0062 18.9581 33.9656 19.6548 33.3468C14.2452 32.7656 8.7871 32.0062 8.7871 22.9875C8.7871 20.4093 9.52258 19.1156 11.071 17.4656C10.8194 16.8562 9.99677 14.3437 11.3226 11.1C13.3452 10.4906 18 13.6312 18 13.6312C19.9355 13.1062 22.0161 12.8343 24.0774 12.8343C26.1387 12.8343 28.2194 13.1062 30.1548 13.6312C30.1548 13.6312 34.8097 10.4812 36.8323 11.1C38.1581 14.3531 37.3355 16.8562 37.0839 17.4656C38.6323 19.125 39.5806 20.4187 39.5806 22.9875C39.5806 32.0343 33.8806 32.7562 28.471 33.3468C29.3613 34.0875 30.1161 35.4937 30.1161 37.6968C30.1161 40.8562 30.0871 44.7656 30.0871 45.5343C30.0871 46.1437 30.5323 46.8843 31.7613 46.6687C41.4387 43.5562 48 34.6593 48 24.2625C48 11.2593 37.1129 1.38745 23.6903 1.38745ZM9.40645 33.7218C9.28064 33.8156 9.30968 34.0312 9.47419 34.2093C9.62903 34.3593 9.85161 34.425 9.97742 34.3031C10.1032 34.2093 10.0742 33.9937 9.90968 33.8156C9.75484 33.6656 9.53226 33.6 9.40645 33.7218ZM8.36129 32.9625C8.29355 33.0843 8.39032 33.2343 8.58387 33.3281C8.73871 33.4218 8.93226 33.3937 9 33.2625C9.06774 33.1406 8.97097 32.9906 8.77742 32.8968C8.58387 32.8406 8.42903 32.8687 8.36129 32.9625ZM11.4968 36.3C11.3419 36.4218 11.4 36.7031 11.6226 36.8812C11.8452 37.0968 12.1258 37.125 12.2516 36.975C12.3774 36.8531 12.3194 36.5718 12.1258 36.3937C11.9129 36.1781 11.6226 36.15 11.4968 36.3ZM10.3935 34.9218C10.2387 35.0156 10.2387 35.2593 10.3935 35.475C10.5484 35.6906 10.8097 35.7843 10.9355 35.6906C11.0903 35.5687 11.0903 35.325 10.9355 35.1093C10.8 34.8937 10.5484 34.8 10.3935 34.9218Z" fill="#2977EB"/>
</svg>
