<svg width="24" height="25" viewBox="0 0 24 25" fill="none" xmlns="http://www.w3.org/2000/svg">
<path fill-rule="evenodd" clip-rule="evenodd" d="M19.5023 12.6375C19.5023 12.9775 19.4723 13.2975 19.4323 13.6175L21.5423 15.2675C21.7323 15.4175 21.7823 15.6875 21.6623 15.9075L19.6623 19.3675C19.5723 19.5275 19.4023 19.6175 19.2323 19.6175C19.1723 19.6175 19.1123 19.6075 19.0523 19.5875L16.5623 18.5875C16.0423 18.9775 15.4823 19.3175 14.8723 19.5675L14.4923 22.2175C14.4623 22.4575 14.2523 22.6375 14.0023 22.6375H10.0023C9.75228 22.6375 9.54228 22.4575 9.51228 22.2175L9.13228 19.5675C8.52228 19.3175 7.96228 18.9875 7.44228 18.5875L4.95228 19.5875C4.90228 19.6075 4.84228 19.6175 4.78228 19.6175C4.60228 19.6175 4.43228 19.5275 4.34228 19.3675L2.34228 15.9075C2.22228 15.6875 2.27228 15.4175 2.46228 15.2675L4.57228 13.6175C4.53228 13.2975 4.50228 12.9675 4.50228 12.6375C4.50228 12.3075 4.53228 11.9775 4.57228 11.6575L2.46228 10.0075C2.27228 9.85745 2.21228 9.58745 2.34228 9.36745L4.34228 5.90745C4.43228 5.74745 4.60228 5.65745 4.77228 5.65745C4.83228 5.65745 4.89228 5.66745 4.95228 5.68745L7.44228 6.68745C7.96228 6.29745 8.52228 5.95745 9.13228 5.70745L9.51228 3.05745C9.54228 2.81745 9.75228 2.63745 10.0023 2.63745H14.0023C14.2523 2.63745 14.4623 2.81745 14.4923 3.05745L14.8723 5.70745C15.4823 5.95745 16.0423 6.28745 16.5623 6.68745L19.0523 5.68745C19.1023 5.66745 19.1623 5.65745 19.2223 5.65745C19.4023 5.65745 19.5723 5.74745 19.6623 5.90745L21.6623 9.36745C21.7823 9.58745 21.7323 9.85745 21.5423 10.0075L19.4323 11.6575C19.4723 11.9775 19.5023 12.2975 19.5023 12.6375ZM17.5023 12.6375C17.5023 12.4275 17.4923 12.2175 17.4523 11.9075L17.3123 10.7775L18.2023 10.0775L19.2723 9.22745L18.5723 8.01745L17.3023 8.52745L16.2423 8.95745L15.3323 8.25745C14.9323 7.95745 14.5323 7.72745 14.1023 7.54745L13.0423 7.11745L12.8823 5.98745L12.6923 4.63745H11.3023L11.1023 5.98745L10.9423 7.11745L9.88228 7.54745C9.47228 7.71745 9.06228 7.95745 8.63228 8.27745L7.73228 8.95745L6.69228 8.53745L5.42228 8.02745L4.72228 9.23745L5.80228 10.0775L6.69228 10.7775L6.55228 11.9075C6.52228 12.2075 6.50228 12.4375 6.50228 12.6375C6.50228 12.8375 6.52228 13.0675 6.55228 13.3775L6.69228 14.5075L5.80228 15.2075L4.72228 16.0475L5.42228 17.2575L6.69228 16.7475L7.75228 16.3175L8.66228 17.0175C9.06228 17.3175 9.46228 17.5475 9.89228 17.7275L10.9523 18.1575L11.1123 19.2875L11.3023 20.6375H12.7023L12.9023 19.2875L13.0623 18.1575L14.1223 17.7275C14.5323 17.5575 14.9423 17.3175 15.3723 16.9975L16.2723 16.3175L17.3123 16.7375L18.5823 17.2475L19.2823 16.0375L18.2023 15.1975L17.3123 14.4975L17.4523 13.3675C17.4823 13.0675 17.5023 12.8475 17.5023 12.6375ZM12.0023 8.63745C9.79228 8.63745 8.00228 10.4275 8.00228 12.6375C8.00228 14.8475 9.79228 16.6375 12.0023 16.6375C14.2123 16.6375 16.0023 14.8475 16.0023 12.6375C16.0023 10.4275 14.2123 8.63745 12.0023 8.63745ZM10.0023 12.6375C10.0023 13.7375 10.9023 14.6375 12.0023 14.6375C13.1023 14.6375 14.0023 13.7375 14.0023 12.6375C14.0023 11.5375 13.1023 10.6375 12.0023 10.6375C10.9023 10.6375 10.0023 11.5375 10.0023 12.6375Z" fill="black" fill-opacity="0.54"/>
</svg>
